<svg width="17" height="17" fill="none" xmlns="http://www.w3.org/2000/svg"><circle cx="8.417" cy="8.417" r="8.417" fill="#517DA3"/><path d="M4.96 12.842v-1.316c1.12-.746 2.016-1.404 2.688-1.974.672-.578 1.153-1.11 1.442-1.596.299-.485.448-.966.448-1.442 0-.43-.13-.779-.392-1.05-.261-.28-.63-.42-1.106-.42-.523 0-.933.178-1.232.532-.29.355-.448.859-.476 1.512l-1.666-.63c.056-.942.397-1.675 1.022-2.198.635-.532 1.456-.798 2.464-.798.747 0 1.363.14 1.848.42.495.27.863.63 1.106 1.078.252.448.378.929.378 1.442 0 .887-.336 1.718-1.008 2.492-.663.766-1.694 1.578-3.094 2.436v.014c.205-.009.476-.018.812-.028.345-.018.64-.028.882-.028h2.548v1.554H4.96z" fill="#fff"/></svg>