<svg width="23" height="26" fill="none" xmlns="http://www.w3.org/2000/svg"><path d="M11.5 19.701c4.892 0 9.172 2.069 11.5 5.155L20.539 26c-1.895-2.206-5.236-3.672-9.04-3.672-3.804 0-7.144 1.466-9.04 3.672L0 24.855C2.328 21.768 6.606 19.7 11.5 19.7zM11.5 0a6.74 6.74 0 014.724 1.923 6.51 6.51 0 011.956 4.644v3.94c0 1.692-.665 3.32-1.855 4.542a6.733 6.733 0 01-4.536 2.019l-.29.006a6.74 6.74 0 01-4.724-1.923 6.51 6.51 0 01-1.957-4.644v-3.94c0-1.692.665-3.32 1.856-4.541a6.733 6.733 0 014.535-2.02L11.5 0zm0 2.627A4.047 4.047 0 008.75 3.7a3.912 3.912 0 00-1.253 2.636l-.006.231v3.94a3.905 3.905 0 001.131 2.748 4.041 4.041 0 002.76 1.194 4.05 4.05 0 002.826-1.033 3.913 3.913 0 001.293-2.678l.007-.23V6.566a3.906 3.906 0 00-1.174-2.786 4.044 4.044 0 00-2.835-1.154z" fill="#9EB7CD"/></svg>